:version 1.10
:name ASF
:units
  mass 1
  length 1
  angle deg
:documentation
  ASF file generated by Kaydara
:root
  axis xyz
  order  tx ty tz rx ry rz
  position 0 0 0
  orientation 0 0 0
:bonedata
  begin
    id 1
    name RightUpLegDummy
    direction -0.718183 -0.695806 0.00816078
    length 4.904
    axis 0 0 0 xyz
  end
  begin
    id 2
    name RightUpLeg
    direction 3.53373e-006 -0.995788 0.0916898
    length 17.4976
    axis -3.49089 -0.000906625 0.000286804 xyz
    dof rx ry rz
  end
  begin
    id 3
    name RightLeg
    direction 0.00371092 -0.995096 -0.0988419
    length 16.5821
    axis 3.68512 0.0193738 -0.131023 xyz
    dof rx ry rz
  end
  begin
    id 4
    name RightFoot
    direction 0.00079151 -0.46099 0.887405
    length 3.77069
    axis 4.81691e-005 -0.120479 -0.188788 xyz
    dof rx ry rz
  end
  begin
    id 5
    name RightToes
    direction 0 0 0
    length 0
    axis 0 0 0 xyz
    dof rx ry rz
  end
  begin
    id 6
    name SpineDummy
    direction 8.3039e-015 1 4.57515e-016
    length 4.6813
    axis 0 0 0 xyz
  end
  begin
    id 7
    name Spine
    direction -3.15643e-008 0.999988 0.00495137
    length 10.1015
    axis -0.001389 0.000121418 2.40972e-006 xyz
    dof rx ry rz
  end
  begin
    id 8
    name Spine1
    direction 0 0 0
    length 0
    axis -0.001389 0.000121451 1.30017e-006 xyz
    dof rx ry rz
  end
  begin
    id 9
    name HEadDummy
    direction -1.99912e-008 0.999999 0.00127422
    length 3.43865
    axis -0.001389 0.000121451 1.30017e-006 xyz
  end
  begin
    id 10
    name HEad
    direction 0 0 0
    length 0
    axis 0 0 0 xyz
    dof rx ry rz
  end
  begin
    id 11
    name LeftShoulder1Dummy
    direction 0.998891 -0.0402509 -0.0244456
    length 3.5433
    axis -0.001389 0.000121451 1.30017e-006 xyz
  end
  begin
    id 12
    name LeftShoulder1
    direction 0.99951 -0.000327763 0.0313091
    length 4.05031
    axis -0.001389 0.000121451 1.30017e-006 xyz
    dof rx ry rz
  end
  begin
    id 13
    name LeftArm
    direction 0.998561 -0.00100056 -0.0536182
    length 10.3537
    axis -23.1894 0.134784 0.967509 xyz
    dof rx ry rz
  end
  begin
    id 14
    name LeftForeArm
    direction 0.998903 0.00866432 0.046012
    length 8.70632
    axis -9.91835 -0.06569 -0.177794 xyz
    dof rx ry rz
  end
  begin
    id 15
    name LeftHand
    direction 0 0 0
    length 0
    axis 0 0 0 xyz
    dof rx ry rz
  end
  begin
    id 16
    name RightShoulderDummy
    direction -0.998891 -0.0402509 -0.0244414
    length 3.5433
    axis -0.001389 0.000121451 1.30017e-006 xyz
  end
  begin
    id 17
    name RightShoulder
    direction -0.99951 -0.000327807 0.0313133
    length 4.05031
    axis 0.215806 0.000203643 -0.0068026 xyz
    dof rx ry rz
  end
  begin
    id 18
    name RightArm
    direction -0.998573 -0.000999564 -0.053403
    length 10.3947
    axis -23.2009 -0.134239 -0.964101 xyz
    dof rx ry rz
  end
  begin
    id 19
    name RightForeArm
    direction -0.998898 0.00868028 0.0461306
    length 8.68355
    axis -9.92322 0.0658061 0.178868 xyz
    dof rx ry rz
  end
  begin
    id 20
    name RightHand
    direction 0 0 0
    length 0
    axis 0 0 0 xyz
    dof rx ry rz
  end
  begin
    id 21
    name LeftUpLegDummy
    direction 0.718183 -0.695806 0.00816078
    length 4.904
    axis 0 0 0 xyz
  end
  begin
    id 22
    name LeftUpLeg
    direction -6.81752e-006 -0.995793 0.0916337
    length 17.4976
    axis -3.48766 0.00143442 -0.000524262 xyz
    dof rx ry rz
  end
  begin
    id 23
    name LeftLeg
    direction -0.00601358 -0.995091 -0.0987824
    length 16.5821
    axis 3.68178 -0.00654042 -0.000285133 xyz
    dof rx ry rz
  end
  begin
    id 24
    name LeftFoot
    direction -0.00417578 -0.460984 0.887399
    length 3.77069
    axis 1.87233e-006 4.66016e-005 -8.6538e-006 xyz
    dof rx ry rz
  end
  begin
    id 25
    name LeftToes
    direction 0 0 0
    length 0
    axis 0 0 0 xyz
    dof rx ry rz
  end
:hierarchy
  begin
    root RightUpLegDummy SpineDummy LeftUpLegDummy
    RightUpLegDummy RightUpLeg
    RightUpLeg RightLeg
    RightLeg RightFoot
    RightFoot RightToes
    SpineDummy Spine
    Spine Spine1
    Spine1 HEadDummy LeftShoulder1Dummy RightShoulderDummy
    HEadDummy HEad
    LeftShoulder1Dummy LeftShoulder1
    LeftShoulder1 LeftArm
    LeftArm LeftForeArm
    LeftForeArm LeftHand
    RightShoulderDummy RightShoulder
    RightShoulder RightArm
    RightArm RightForeArm
    RightForeArm RightHand
    LeftUpLegDummy LeftUpLeg
    LeftUpLeg LeftLeg
    LeftLeg LeftFoot
    LeftFoot LeftToes
  end

:SAMPLES-PER-SECOND 30
:FULLY-SPECIFIED
:DEGREES
173
root  -79.3976 41.7497 -0.666078 -25.2957 -87.0638 23.7248
RightUpLeg  2.56916 -8.12321 -4.64788
RightLeg  4.39154 -9.06084 3.1649
RightFoot  -3.00431 0.118958 -1.92924
RightToes  0.000481921 0.542163 -0.142578
Spine  5.00582 0.281414 2.89046
Spine1  -4.09079 1.68846 -8.13491
HEad  -4.50604 -1.53406 4.14713
LeftShoulder1  0.320184 -3.20438 4.14256
LeftArm  -17.0459 13.5509 -4.95934
LeftForeArm  25.5022 -3.86826 -1.10757
LeftHand  -0.25398 0.0180481 5.50724
RightShoulder  0.56651 -0.577178 12.2889
RightArm  -17.7507 -3.1531 -9.58498
RightForeArm  -21.6529 -0.115913 4.85752
RightHand  -3.05245 10.316 -22.7339
LeftUpLeg  1.41702 5.23488 4.52468
LeftLeg  2.25564 11.4081 -3.02617
LeftFoot  -0.799295 0.1561 -1.63977
LeftToes  1.06245e-005 4.65868e-005 -8.65515e-006
174
root  -79.4686 41.7514 -0.645959 -29.3049 -87.2204 27.853
RightUpLeg  2.49713 -8.19442 -4.80808
RightLeg  4.46759 -8.74699 3.16131
RightFoot  -3.09998 0.117111 -1.90706
RightToes  0.000481921 0.542163 -0.142578
Spine  4.72283 0.313683 2.11552
Spine1  -3.4143 1.58992 -7.073
HEad  -5.07616 -1.40468 3.22402
LeftShoulder1  0.451529 -3.35179 2.08191
LeftArm  -15.3317 13.2505 -4.3018
LeftForeArm  22.0875 -2.67006 -1.70494
LeftHand  -0.25398 0.0180481 5.50724
RightShoulder  0.562203 -0.67909 12.903
RightArm  -16.6995 -2.74275 -9.37346
RightForeArm  -17.6397 -0.887595 4.93936
RightHand  -2.8974 9.84322 -22.2494
LeftUpLeg  1.59208 5.14836 4.37909
LeftLeg  1.93432 11.6947 -3.10211
LeftFoot  -0.754906 0.168028 -1.76517
LeftToes  1.06245e-005 4.65868e-005 -8.65515e-006
175
root  -79.5328 41.7553 -0.620553 -33.7211 -87.3555 32.4144
RightUpLeg  2.40647 -8.3028 -5.00753
RightLeg  4.5125 -8.39372 3.20343
RightFoot  -3.17861 0.110445 -1.80338
RightToes  0.000481921 0.542163 -0.142578
Spine  4.83845 0.438466 1.24118
Spine1  -3.56272 1.49057 -5.74154
HEad  -5.18323 -1.29447 2.13316
LeftShoulder1  0.613464 -3.83906 0.204744
LeftArm  -14.8138 13.689 -3.06597
LeftForeArm  21.3059 -2.99669 -1.85233
LeftHand  -0.25398 0.0180481 5.50724
RightShoulder  0.514159 -0.840726 12.1844
RightArm  -15.1216 -2.8706 -8.6449
RightForeArm  -17.5983 -1.52831 5.41387
RightHand  -2.48017 8.28576 -21.2634
LeftUpLeg  1.74467 5.02369 4.18209
LeftLeg  1.58984 12.0687 -3.14633
LeftFoot  -0.71222 0.163117 -1.7089
LeftToes  1.06245e-005 4.65868e-005 -8.65515e-006
176
root  -79.5742 41.7593 -0.605065 -32.996 -87.3428 31.9426
RightUpLeg  2.25035 -8.27339 -4.98721
RightLeg  4.41007 -8.44642 3.21676
RightFoot  -3.18532 0.100474 -1.6483
RightToes  0.000481921 0.542163 -0.142578
Spine  5.21132 0.793944 -0.132632
Spine1  -4.55967 1.35217 -2.96115
HEad  -4.71962 -1.29191 0.293377
LeftShoulder1  0.930791 -5.07737 -2.79171
LeftArm  -13.1309 13.9457 -0.344225
LeftForeArm  20.0804 -3.27495 -2.39352
LeftHand  -0.25398 0.0180481 5.50724
RightShoulder  0.376753 -1.10676 8.28391
RightArm  -14.2169 -4.5491 -6.41524
RightForeArm  -17.1579 -1.64678 5.44911
RightHand  -2.49939 8.31606 -21.3547
LeftUpLeg  1.57538 4.98276 4.13935
LeftLeg  1.51135 12.1379 -3.13945
LeftFoot  -0.762061 0.157805 -1.65433
LeftToes  1.06245e-005 4.65868e-005 -8.65515e-006
177
root  -79.6007 41.7621 -0.592233 -28.8681 -87.2487 28.1085
RightUpLeg  2.07511 -8.13754 -4.81542
RightLeg  4.21996 -8.76624 3.19286
RightFoot  -3.13237 0.0933927 -1.53819
RightToes  0.000481921 0.542163 -0.142578
Spine  5.14498 0.588674 0.169561
Spine1  -4.61173 1.24415 -3.64606
HEad  -5.1662 -1.23616 0.630748
LeftShoulder1  0.794711 -4.55302 -1.51671
LeftArm  -11.2092 13.234 -0.311407
LeftForeArm  16.8088 -3.11737 -3.31998
LeftHand  -0.25398 0.0180481 5.50724
RightShoulder  0.369841 -1.28521 9.20323
RightArm  -12.8469 -4.67575 -7.56666
RightForeArm  -20.4968 -1.70401 6.1124
RightHand  -2.74801 8.94212 -22.4325
LeftUpLeg  1.21144 5.03566 4.22257
LeftLeg  1.62675 11.918 -3.13306
LeftFoot  -0.845658 0.155572 -1.6405
LeftToes  1.06245e-005 4.65868e-005 -8.65515e-006
178
root  -79.6301 41.7636 -0.565863 -28.1855 -87.2638 27.5621
RightUpLeg  2.00479 -8.08708 -4.7843
RightLeg  4.1475 -8.80823 3.16654
RightFoot  -3.11306 0.0907825 -1.49761
RightToes  0.000481921 0.542163 -0.142578
Spine  4.98115 0.220821 0.301582
Spine1  -4.22386 1.01541 -4.51733
HEad  -5.70239 -0.955056 1.48118
LeftShoulder1  0.487912 -3.15909 1.21501
LeftArm  -9.65068 12.6881 -1.60039
LeftForeArm  13.2028 -3.30344 -4.19603
LeftHand  -0.25398 0.0180481 5.50724
RightShoulder  0.482972 -0.920133 11.5814
RightArm  -10.8966 -3.95851 -10.0739
RightForeArm  -25.698 -1.99085 7.18875
RightHand  -2.76019 8.54281 -23.1256
LeftUpLeg  1.11996 5.0578 4.22567
LeftLeg  1.60661 11.8746 -3.16797
LeftFoot  -0.878211 0.153741 -1.64082
LeftToes  1.06245e-005 4.65868e-005 -8.65515e-006
179
root  -79.6645 41.765 -0.521821 -33.2874 -87.4712 32.6307
RightUpLeg  2.01888 -8.17224 -4.97215
RightLeg  4.25037 -8.40464 3.14503
RightFoot  -3.16962 0.0881124 -1.45609
RightToes  0.000481921 0.542163 -0.142578
Spine  5.16733 0.31331 0.0759409
Spine1  -4.3605 1.03545 -4.07019
HEad  -5.43892 -0.901706 1.26991
LeftShoulder1  0.507339 -3.07733 0.860951
LeftArm  -7.78269 11.7933 -0.374147
LeftForeArm  11.3897 -2.7956 -5.08748
LeftHand  -0.25398 0.0180481 5.50724
RightShoulder  0.430744 -1.12134 10.8637
RightArm  -10.2997 -3.98701 -10.1145
RightForeArm  -29.6799 -1.90644 7.61266
RightHand  -3.01362 8.7293 -24.8335
LeftUpLeg  1.39948 4.99665 4.0784
LeftLeg  1.34126 12.2275 -3.24444
LeftFoot  -0.869139 0.154161 -1.68018
LeftToes  1.06245e-005 4.65868e-005 -8.65515e-006
180
root  -79.6911 41.7678 -0.467666 -39.8911 -87.7265 39.228
RightUpLeg  2.00127 -8.24391 -5.15475
RightLeg  4.30944 -7.95268 3.13356
RightFoot  -3.20619 0.081824 -1.35833
RightToes  0.000481921 0.542163 -0.142578
Spine  5.51307 0.351945 0.702805
Spine1  -4.90417 1.21377 -5.1651
HEad  -4.7618 -0.667041 1.76066
LeftShoulder1  0.461356 -3.49112 1.9097
LeftArm  3.42386 10.4813 0.836639
LeftForeArm  -2.46926 -3.98503 -8.51201
LeftHand  -0.25398 0.0180481 5.50724
RightShoulder  0.396639 -1.34222 11.2239
RightArm  -9.51801 -3.96675 -10.4906
RightForeArm  -31.08 -1.85514 7.98018
RightHand  -3.3248 9.54397 -25.8608
LeftUpLeg  1.63905 4.94629 3.92944
LeftLeg  1.09108 12.6495 -3.32354
LeftFoot  -0.881752 0.153496 -1.70327
LeftToes  1.06245e-005 4.65868e-005 -8.65515e-006
